<svg width="367" height="392" viewBox="0 0 367 392" fill="none" xmlns="http://www.w3.org/2000/svg">
<svg width="404" height="429" viewBox="0 0 404 429" fill="none" xmlns="http://www.w3.org/2000/svg">
<path d="M203.982 29.6736C203.982 50.3288 191.585 67.1765 187.936 86.8807C185.717 98.8618 180.567 109.27 177.296 120.717C175.292 127.731 172.151 136.987 168.75 143.303C163.718 152.648 149.946 153.379 139.623 156.82C105.893 168.064 70.6868 172.701 36.1972 180.366C21.8881 183.545 35.1793 183.511 42.3016 188.214C59.8646 199.812 76.9935 212.671 93.4043 225.8L142.414 263.56C144.285 267.771 142.763 275.694 142.763 280.129C142.763 289.489 142.763 298.849 142.763 308.21C142.763 330.215 142.763 352.22 142.763 374.225C142.763 381.496 143.961 388.354 144.333 395.416C144.442 397.495 144.943 402.48 145.99 397.77C148.066 388.428 157.215 381.38 163.169 374.661C172.437 364.201 180.841 352.98 189.505 342.046C207.27 319.628 222.335 290.318 244.445 272.63C246.211 271.217 280.347 293.685 285.258 296.524C295.655 302.535 305.797 310.238 315.256 317.628C322.824 323.54 332.465 325.944 339.674 331.842C346.606 337.514 355.552 340.092 363.307 344.4C368.203 347.12 365.475 342.324 364.092 340.127C357.492 329.645 354.143 316.177 350.313 304.547C343.383 283.5 333.895 261.103 318.221 245.072C307.947 234.564 300.565 220.902 292.67 208.62C290.35 205.011 287.118 201.354 285.258 197.632C283.255 193.628 301.987 179.716 304.792 177.226C321.04 162.806 336.409 148.574 351.621 133.362C356.512 128.471 374.905 116.485 374.905 109.031C374.905 106.483 327.713 116.814 321.71 117.926C313.428 119.46 305.601 122.979 297.292 124.641C288.857 126.328 280.256 127.19 271.828 128.914C266.604 129.982 258.41 133.851 254.91 129.35C239.501 109.538 225.218 90.1912 216.888 66.1257C213.34 55.8769 210.268 45.385 205.551 35.9524" stroke="#FFA800" stroke-width="58" stroke-linecap="round"/>
</svg>
</svg>